<svg xmlns="http://www.w3.org/2000/svg" x="0px" y="0px"
width="48" height="48"
viewBox="0 0 172 172"
style=" fill:#000000;"><g fill="none" fill-rule="nonzero" stroke="none" stroke-width="1" stroke-linecap="butt" stroke-linejoin="miter" stroke-miterlimit="10" stroke-dasharray="" stroke-dashoffset="0" font-family="none" font-weight="none" font-size="none" text-anchor="none" style="mix-blend-mode: normal"><path d="M0,172v-172h172v172z" fill="#111111"></path><g><path d="M64.5,114.66667c-3.94167,0 -7.16667,-3.225 -7.16667,-7.16667v-35.83333h-14.33333v35.83333c0,11.825 9.675,21.5 21.5,21.5h68.08333v-14.33333z" fill="#c4c4c4"></path><path d="M45.86667,35.83333l-1.43333,-4.65833c-2.15,-5.73333 -7.525,-9.675 -13.61667,-9.675h-12.9v14.33333h12.9l19.70833,59.48333c1.075,2.86667 3.58333,5.01667 6.80833,5.01667h68.08333c2.86667,0 5.375,-1.79167 6.45,-4.3l27.23333,-60.2z" fill="#c4c4c4"></path><path d="M17.91667,21.5c-3.95804,0 -7.16667,3.20863 -7.16667,7.16667c0,3.95804 3.20863,7.16667 7.16667,7.16667c3.95804,0 7.16667,-3.20863 7.16667,-7.16667c0,-3.95804 -3.20863,-7.16667 -7.16667,-7.16667z" fill="#f5f5f5"></path><path d="M121.83333,129c-5.93706,0 -10.75,4.81294 -10.75,10.75c0,5.93706 4.81294,10.75 10.75,10.75c5.93706,0 10.75,-4.81294 10.75,-10.75c0,-5.93706 -4.81294,-10.75 -10.75,-10.75zM68.08333,129c-5.93706,0 -10.75,4.81294 -10.75,10.75c0,5.93706 4.81294,10.75 10.75,10.75c5.93706,0 10.75,-4.81294 10.75,-10.75c0,-5.93706 -4.81294,-10.75 -10.75,-10.75z" fill="#f5f5f5"></path><g fill="#c4c4c4"><path d="M121.83333,136.16667c-1.97902,0 -3.58333,1.60431 -3.58333,3.58333c0,1.97902 1.60431,3.58333 3.58333,3.58333c1.97902,0 3.58333,-1.60431 3.58333,-3.58333c0,-1.97902 -1.60431,-3.58333 -3.58333,-3.58333zM68.08333,136.16667c-1.97902,0 -3.58333,1.60431 -3.58333,3.58333c0,1.97902 1.60431,3.58333 3.58333,3.58333c1.97902,0 3.58333,-1.60431 3.58333,-3.58333c0,-1.97902 -1.60431,-3.58333 -3.58333,-3.58333z"></path></g></g><g><g id="IOS_copy"><path d="M172,136.16667c0,19.70833 -16.125,35.83333 -35.83333,35.83333c-19.70833,0 -35.83333,-16.125 -35.83333,-35.83333c0,-19.70833 16.125,-35.83333 35.83333,-35.83333c19.70833,0 35.83333,16.125 35.83333,35.83333" fill="#43a047"></path><path d="M157.66667,129h-14.33333v-14.33333h-14.33333v14.33333h-14.33333v14.33333h14.33333v14.33333h14.33333v-14.33333h14.33333z" fill="#ffffff"></path></g></g></g></svg>