<svg xmlns="http://www.w3.org/2000/svg" x="0px" y="0px"
width="48" height="48"
viewBox="0 0 172 172"
style=" fill:#000000;"><g fill="none" fill-rule="nonzero" stroke="none" stroke-width="1" stroke-linecap="butt" stroke-linejoin="miter" stroke-miterlimit="10" stroke-dasharray="" stroke-dashoffset="0" font-family="none" font-weight="none" font-size="none" text-anchor="none" style="mix-blend-mode: normal"><path d="M0,172v-172h172v172z" fill="#232323"></path><g><path d="M71.66667,86c0,-46.58333 35.83333,-68.08333 35.83333,-68.08333h-34.4c-30.42967,0 -55.18333,30.54075 -55.18333,68.08333c0,37.54258 24.75367,68.08333 55.18333,68.08333h34.4c0,0 -35.83333,-21.5 -35.83333,-68.08333z" fill="#c4c4c4"></path><path d="M107.5,17.91667c-27.66333,0 -50.16667,30.54075 -50.16667,68.08333c0,37.54258 22.50333,68.08333 50.16667,68.08333c27.66333,0 50.16667,-30.54075 50.16667,-68.08333c0,-37.54258 -22.50333,-68.08333 -50.16667,-68.08333zM107.5,114.66667c-11.85725,0 -21.5,-12.86058 -21.5,-28.66667c0,-15.80608 9.64275,-28.66667 21.5,-28.66667c11.85725,0 21.5,12.86058 21.5,28.66667c0,15.80608 -9.64275,28.66667 -21.5,28.66667z" fill="#f5f5f5"></path><path d="M107.5,57.33333c-6.76175,0 -12.79608,4.1925 -16.74133,10.72133c5.55775,2.63017 9.57467,9.64275 9.57467,17.94533c0,8.30258 -4.01692,15.31517 -9.57467,17.94533c3.94525,6.52883 9.97958,10.72133 16.74133,10.72133c11.85725,0 21.5,-12.86058 21.5,-28.66667c0,-15.80608 -9.64275,-28.66667 -21.5,-28.66667z" fill="#696969"></path></g></g></svg>